<?xml version="1.0" encoding="utf-8"?>
<!DOCTYPE svg PUBLIC "-//W3C//DTD SVG 1.1//EN" "http://www.w3.org/Graphics/SVG/1.1/DTD/svg11.dtd">
<svg width="18" height="18" viewBox="0 0 18 18" fill="none" xmlns="http://www.w3.org/2000/svg"><path d="M6.33019 7.09788H0.85V1.61923H6.33019V7.09788ZM6.33019 17.15H0.85V11.6699H6.33019V17.15ZM16.381 17.15H10.9023V11.6699H16.381V17.15ZM11.9969 0.85783C11.998 0.854861 11.9987 0.854205 11.9989 0.854046C11.9995 0.853437 12.0008 0.852311 12.0029 0.851317C12.005 0.850323 12.0067 0.85005 12.0076 0.850008C12.0078 0.849996 12.0088 0.84985 12.0117 0.850932L17.1422 2.71823C17.145 2.71925 17.1457 2.71997 17.1459 2.72018L17.146 2.72021C17.1462 2.72041 17.1465 2.72072 17.1468 2.72113C17.1474 2.72184 17.1481 2.72285 17.1487 2.7242C17.1497 2.72633 17.15 2.72803 17.15 2.72885C17.15 2.72907 17.1502 2.73005 17.1491 2.73301L15.2817 7.86337C15.2807 7.86617 15.28 7.86692 15.2798 7.86713L15.2798 7.86716C15.2792 7.86777 15.2779 7.86889 15.2758 7.86989C15.2736 7.87088 15.2719 7.87116 15.2711 7.8712C15.2709 7.87121 15.2699 7.87136 15.2669 7.87027L10.1365 6.00297C10.1337 6.00195 10.1329 6.00123 10.1327 6.00103L10.1327 6.001C10.1321 6.00043 10.131 5.99914 10.13 5.99701C10.129 5.99488 10.1287 5.99318 10.1287 5.99235C10.1287 5.99214 10.1285 5.99116 10.1296 5.98819L11.9969 0.85783Z" stroke="currentColor" stroke-width="1.7"/></svg>
